<svg width="1828" height="930" viewBox="0 0 1828 930" fill="none" xmlns="http://www.w3.org/2000/svg">
<ellipse opacity="0.1" cx="914" cy="722" rx="398" ry="199" fill="#D8D8D8"/>
<g clip-path="url(#clip0_0_274)">
<path d="M715.218 765V661.32H758.738V674.632H734.162V704.456H753.49V717.64H734.162V751.944H758.994V765H715.218ZM769.968 765V661.32H788.912V751.944H814V765H769.968ZM818.595 765L839.331 661.32H859.555L880.291 765H862.755L858.659 741.064H840.611L836.387 765H818.595ZM842.531 729.032H856.611L849.571 685.512L842.531 729.032ZM916.33 766.408C910.101 766.408 904.896 765.213 900.714 762.824C896.533 760.349 893.376 756.765 891.242 752.072C889.109 747.379 887.914 741.619 887.658 734.792L903.914 731.592C904.085 735.603 904.554 739.144 905.322 742.216C906.176 745.288 907.413 747.677 909.034 749.384C910.741 751.005 912.96 751.816 915.69 751.816C918.762 751.816 920.938 750.92 922.218 749.128C923.498 747.251 924.138 744.904 924.138 742.088C924.138 737.565 923.114 733.853 921.066 730.952C919.018 728.051 916.288 725.149 912.874 722.248L899.818 710.728C896.149 707.571 893.205 704.072 890.986 700.232C888.853 696.307 887.786 691.485 887.786 685.768C887.786 677.576 890.176 671.261 894.954 666.824C899.733 662.387 906.261 660.168 914.538 660.168C919.402 660.168 923.456 660.936 926.698 662.472C929.941 663.923 932.501 665.971 934.378 668.616C936.341 671.261 937.792 674.291 938.73 677.704C939.669 681.032 940.266 684.573 940.522 688.328L924.394 691.144C924.224 687.901 923.84 685 923.242 682.44C922.73 679.88 921.749 677.875 920.298 676.424C918.933 674.973 916.885 674.248 914.154 674.248C911.338 674.248 909.162 675.187 907.626 677.064C906.176 678.856 905.45 681.117 905.45 683.848C905.45 687.347 906.176 690.248 907.626 692.552C909.077 694.771 911.168 697.075 913.898 699.464L926.826 710.856C931.093 714.44 934.72 718.664 937.706 723.528C940.778 728.307 942.314 734.109 942.314 740.936C942.314 745.885 941.205 750.28 938.986 754.12C936.853 757.96 933.824 760.989 929.898 763.208C926.058 765.341 921.536 766.408 916.33 766.408ZM963.836 765V675.272H947.324V661.32H999.036V675.272H982.78V765H963.836ZM1008.98 765V661.32H1027.67V765H1008.98ZM1071.62 766.408C1064.03 766.408 1058.05 764.915 1053.7 761.928C1049.44 758.941 1046.45 754.888 1044.74 749.768C1043.04 744.563 1042.18 738.589 1042.18 731.848V694.856C1042.18 687.773 1043.04 681.629 1044.74 676.424C1046.45 671.219 1049.44 667.208 1053.7 664.392C1058.05 661.576 1064.03 660.168 1071.62 660.168C1078.79 660.168 1084.38 661.405 1088.39 663.88C1092.49 666.269 1095.39 669.725 1097.09 674.248C1098.8 678.771 1099.65 684.019 1099.65 689.992V698.696H1081.48V689.736C1081.48 686.835 1081.31 684.189 1080.97 681.8C1080.71 679.411 1079.9 677.533 1078.53 676.168C1077.25 674.717 1074.99 673.992 1071.75 673.992C1068.51 673.992 1066.12 674.76 1064.58 676.296C1063.13 677.747 1062.19 679.752 1061.77 682.312C1061.34 684.787 1061.13 687.603 1061.13 690.76V735.816C1061.13 739.571 1061.42 742.685 1062.02 745.16C1062.62 747.549 1063.69 749.384 1065.22 750.664C1066.84 751.859 1069.02 752.456 1071.75 752.456C1074.91 752.456 1077.13 751.731 1078.41 750.28C1079.77 748.744 1080.62 746.739 1080.97 744.264C1081.31 741.789 1081.48 739.016 1081.48 735.944V726.6H1099.65V734.92C1099.65 741.064 1098.84 746.525 1097.22 751.304C1095.6 755.997 1092.74 759.709 1088.65 762.44C1084.64 765.085 1078.96 766.408 1071.62 766.408Z" fill="white"/>
<path opacity="0.7" d="M944.911 861.35C940.678 861.35 937.178 860.367 934.411 858.4C931.678 856.4 930.195 853.483 929.961 849.65H941.761C941.928 851.683 942.828 852.7 944.461 852.7C945.061 852.7 945.561 852.567 945.961 852.3C946.395 852 946.611 851.55 946.611 850.95C946.611 850.117 946.161 849.45 945.261 848.95C944.361 848.417 942.961 847.817 941.061 847.15C938.795 846.35 936.911 845.567 935.411 844.8C933.945 844.033 932.678 842.917 931.611 841.45C930.545 839.983 930.028 838.1 930.061 835.8C930.061 833.5 930.645 831.55 931.811 829.95C933.011 828.317 934.628 827.083 936.661 826.25C938.728 825.417 941.045 825 943.611 825C947.945 825 951.378 826 953.911 828C956.478 830 957.828 832.817 957.961 836.45H946.011C945.978 835.45 945.728 834.733 945.261 834.3C944.795 833.867 944.228 833.65 943.561 833.65C943.095 833.65 942.711 833.817 942.411 834.15C942.111 834.45 941.961 834.883 941.961 835.45C941.961 836.25 942.395 836.917 943.261 837.45C944.161 837.95 945.578 838.567 947.511 839.3C949.745 840.133 951.578 840.933 953.011 841.7C954.478 842.467 955.745 843.533 956.811 844.9C957.878 846.267 958.411 847.983 958.411 850.05C958.411 852.217 957.878 854.167 956.811 855.9C955.745 857.6 954.195 858.933 952.161 859.9C950.128 860.867 947.711 861.35 944.911 861.35ZM973.161 825.6V845.55C973.161 847.183 973.511 848.483 974.211 849.45C974.945 850.383 976.111 850.85 977.711 850.85C979.311 850.85 980.495 850.383 981.261 849.45C982.028 848.483 982.411 847.183 982.411 845.55V825.6H993.461V845.55C993.461 848.917 992.761 851.8 991.361 854.2C989.961 856.567 988.045 858.35 985.611 859.55C983.178 860.75 980.461 861.35 977.461 861.35C974.461 861.35 971.795 860.75 969.461 859.55C967.161 858.35 965.361 856.567 964.061 854.2C962.761 851.833 962.111 848.95 962.111 845.55V825.6H973.161ZM1027.2 837.75C1027.2 839.983 1026.68 842.017 1025.65 843.85C1024.62 845.65 1023.08 847.083 1021.05 848.15C1019.05 849.217 1016.62 849.75 1013.75 849.75H1009.35V861H998.249V825.6H1013.75C1018.08 825.6 1021.4 826.7 1023.7 828.9C1026.03 831.1 1027.2 834.05 1027.2 837.75ZM1012.5 841C1014.8 841 1015.95 839.917 1015.95 837.75C1015.95 835.583 1014.8 834.5 1012.5 834.5H1009.35V841H1012.5ZM1059.67 837.75C1059.67 839.983 1059.15 842.017 1058.12 843.85C1057.09 845.65 1055.55 847.083 1053.52 848.15C1051.52 849.217 1049.09 849.75 1046.22 849.75H1041.82V861H1030.72V825.6H1046.22C1050.55 825.6 1053.87 826.7 1056.17 828.9C1058.5 831.1 1059.67 834.05 1059.67 837.75ZM1044.97 841C1047.27 841 1048.42 839.917 1048.42 837.75C1048.42 835.583 1047.27 834.5 1044.97 834.5H1041.82V841H1044.97ZM1074.29 852.6H1084.99V861H1063.19V825.6H1074.29V852.6ZM1122.48 825.6L1109.78 850.25V861H1098.68V850.25L1085.98 825.6H1098.68L1104.33 838.15L1109.98 825.6H1122.48Z" fill="white"/>
</g>
<path d="M1280.55 493.879L1275.63 499.536L1280.55 493.879ZM1269.27 494.66L1274.93 499.584L1269.27 494.66ZM1270.05 505.947L1274.97 500.29L1270.05 505.947ZM589.999 461.028L585.631 454.931L589.999 461.028ZM1111.51 392.781L1114.16 385.764V385.764L1111.51 392.781ZM1105.86 407.75L1103.22 414.767V414.767L1105.86 407.75ZM599.317 474.035L594.949 467.938L599.317 474.035ZM464.49 612.99L470.716 617.171L464.49 612.99ZM462.308 601.888L466.489 595.662L462.308 601.888ZM451.206 604.07L444.98 599.889H444.98L451.206 604.07ZM1285.48 488.222C1279.02 482.601 1269.23 483.279 1263.61 489.736L1274.93 499.584C1275.11 499.376 1275.42 499.354 1275.63 499.536L1285.48 488.222ZM1479.5 914C1479.5 744.08 1404.34 591.685 1285.48 488.222L1275.63 499.536C1391.36 600.273 1464.5 748.603 1464.5 914H1479.5ZM1464 929.5C1472.56 929.5 1479.5 922.56 1479.5 914H1464.5C1464.5 914.276 1464.28 914.5 1464 914.5V929.5ZM1448.5 914C1448.5 922.56 1455.44 929.5 1464 929.5V914.5C1463.72 914.5 1463.5 914.276 1463.5 914H1448.5ZM1265.13 511.604C1377.51 609.434 1448.5 753.427 1448.5 914H1463.5C1463.5 748.905 1390.49 600.846 1274.97 500.29L1265.13 511.604ZM1263.61 489.736C1257.99 496.193 1258.67 505.983 1265.13 511.604L1274.97 500.29C1274.77 500.109 1274.74 499.793 1274.93 499.584L1263.61 489.736ZM914.5 349.5C791.842 349.5 678.27 388.569 585.631 454.931L594.367 467.125C684.542 402.528 795.077 364.5 914.5 364.5V349.5ZM1114.16 385.764C1052.06 362.321 984.763 349.5 914.5 349.5V364.5C982.925 364.5 1048.43 376.984 1108.87 399.798L1114.16 385.764ZM1123.19 405.74C1126.21 397.731 1122.17 388.788 1114.16 385.764L1108.87 399.798C1109.12 399.895 1109.25 400.184 1109.16 400.442L1123.19 405.74ZM1103.22 414.767C1111.22 417.79 1120.17 413.748 1123.19 405.74L1109.16 400.442C1109.06 400.7 1108.77 400.831 1108.51 400.733L1103.22 414.767ZM914.5 380.5C980.966 380.5 1044.56 392.624 1103.22 414.767L1108.51 400.733C1048.19 377.962 982.803 365.5 914.5 365.5V380.5ZM603.684 480.132C691.231 417.417 798.527 380.5 914.5 380.5V365.5C795.292 365.5 684.96 403.459 594.949 467.938L603.684 480.132ZM582.057 476.558C587.042 483.517 596.725 485.117 603.684 480.132L594.949 467.938C594.724 468.099 594.412 468.047 594.251 467.823L582.057 476.558ZM585.631 454.931C578.672 459.916 577.072 469.599 582.057 476.558L594.251 467.823C594.091 467.598 594.142 467.286 594.367 467.125L585.631 454.931ZM470.716 617.171C475.488 610.064 473.596 600.434 466.489 595.662L458.127 608.115C458.356 608.269 458.417 608.579 458.263 608.809L470.716 617.171ZM380.5 914C380.5 804.112 413.738 702.025 470.716 617.171L458.263 608.809C399.677 696.058 365.5 801.041 365.5 914H380.5ZM365 929.5C373.56 929.5 380.5 922.56 380.5 914H365.5C365.5 914.276 365.276 914.5 365 914.5V929.5ZM349.5 914C349.5 922.56 356.44 929.5 365 929.5V914.5C364.724 914.5 364.5 914.276 364.5 914H349.5ZM444.98 599.889C384.679 689.693 349.5 797.765 349.5 914H364.5C364.5 800.836 398.74 695.66 457.433 608.251L444.98 599.889ZM466.489 595.662C459.382 590.89 449.752 592.782 444.98 599.889L457.433 608.251C457.587 608.022 457.898 607.961 458.127 608.115L466.489 595.662Z" fill="url(#paint0_linear_0_274)"/>
<path d="M1624.49 754.757L1631.81 753.12L1624.49 754.757ZM1614.94 748.695L1613.3 741.376L1614.94 748.695ZM1608.88 758.249L1601.56 759.885L1608.88 758.249ZM1551.38 562.35L1557.94 558.715V558.715L1551.38 562.35ZM1548.26 573.225L1551.9 579.785V579.785L1548.26 573.225ZM1537.39 570.104L1543.95 566.47V566.47L1537.39 570.104ZM712.904 231.941L710.784 224.747L712.904 231.941ZM708.381 216.594L706.261 209.399V209.399L708.381 216.594ZM1631.81 753.12C1629.94 744.766 1621.66 739.508 1613.3 741.376L1616.58 756.015C1616.85 755.954 1617.11 756.124 1617.17 756.394L1631.81 753.12ZM1649.5 914C1649.5 858.752 1643.39 804.91 1631.81 753.12L1617.17 756.394C1628.52 807.117 1634.5 859.86 1634.5 914H1649.5ZM1634 929.5C1642.56 929.5 1649.5 922.56 1649.5 914H1634.5C1634.5 914.276 1634.28 914.5 1634 914.5V929.5ZM1618.5 914C1618.5 922.56 1625.44 929.5 1634 929.5V914.5C1633.72 914.5 1633.5 914.276 1633.5 914H1618.5ZM1601.56 759.885C1612.65 809.47 1618.5 861.043 1618.5 914H1633.5C1633.5 859.934 1627.52 807.264 1616.2 756.612L1601.56 759.885ZM1613.3 741.376C1604.95 743.245 1599.69 751.531 1601.56 759.885L1616.2 756.612C1616.14 756.342 1616.31 756.075 1616.58 756.015L1613.3 741.376ZM914.5 179.5C905.94 179.5 899 186.44 899 195H914C914 194.724 914.224 194.5 914.5 194.5V179.5ZM1557.94 558.715C1432.67 332.622 1191.49 179.5 914.5 179.5V194.5C1185.82 194.5 1422.09 344.472 1544.82 565.985L1557.94 558.715ZM1551.9 579.785C1559.39 575.636 1562.09 566.203 1557.94 558.715L1544.82 565.985C1544.96 566.226 1544.87 566.531 1544.63 566.665L1551.9 579.785ZM1530.83 573.739C1534.98 581.227 1544.41 583.934 1551.9 579.785L1544.63 566.665C1544.39 566.798 1544.08 566.711 1543.95 566.47L1530.83 573.739ZM914.5 210.5C1179.78 210.5 1410.8 357.112 1530.83 573.739L1543.95 566.47C1421.38 345.262 1185.44 195.5 914.5 195.5V210.5ZM899 195C899 203.56 905.94 210.5 914.5 210.5V195.5C914.224 195.5 914 195.276 914 195H899ZM715.024 239.135C723.235 236.715 727.93 228.097 725.51 219.886L711.122 224.126C711.2 224.391 711.049 224.669 710.784 224.747L715.024 239.135ZM210.5 914C210.5 594.73 423.346 325.088 715.024 239.135L710.784 224.747C412.906 312.527 195.5 587.893 195.5 914H210.5ZM195 929.5C203.56 929.5 210.5 922.56 210.5 914H195.5C195.5 914.276 195.276 914.5 195 914.5V929.5ZM179.5 914C179.5 922.56 186.44 929.5 195 929.5V914.5C194.724 914.5 194.5 914.276 194.5 914H179.5ZM706.261 209.399C401.771 299.128 179.5 580.6 179.5 914H194.5C194.5 587.437 412.21 311.69 710.501 223.788L706.261 209.399ZM725.51 219.886C723.09 211.675 714.472 206.98 706.261 209.399L710.501 223.788C710.766 223.71 711.044 223.861 711.122 224.126L725.51 219.886Z" fill="url(#paint1_linear_0_274)"/>
<path d="M1406.62 153.505L1402.54 159.796L1406.62 153.505ZM1395.56 155.86L1401.85 159.943L1395.56 155.86ZM1397.91 166.926L1401.99 160.635L1397.91 166.926ZM207.941 346.22L202.099 341.517V341.517L207.941 346.22ZM1211.08 57.832L1213.54 50.7463L1211.08 57.832ZM1205.83 72.9481L1208.29 65.8624L1205.83 72.9481ZM220.404 356.255L214.562 351.551V351.551L220.404 356.255ZM209.155 357.469L204.452 363.31L209.155 357.469ZM101.306 550.647L94.4609 547.582L101.306 550.647ZM97.274 540.077L100.339 533.231L97.274 540.077ZM86.7031 544.108L93.5482 547.174H93.5482L86.7031 544.108ZM1410.7 147.214C1403.52 142.553 1393.93 144.596 1389.26 151.777L1401.85 159.943C1402 159.712 1402.31 159.646 1402.54 159.796L1410.7 147.214ZM1827.5 914C1827.5 592.625 1661.53 310.022 1410.7 147.214L1402.54 159.796C1649.28 319.955 1812.5 597.917 1812.5 914H1827.5ZM1812 929.5C1820.56 929.5 1827.5 922.56 1827.5 914H1812.5C1812.5 914.276 1812.28 914.5 1812 914.5V929.5ZM1796.5 914C1796.5 922.56 1803.44 929.5 1812 929.5V914.5C1811.72 914.5 1811.5 914.276 1811.5 914H1796.5ZM1393.83 173.217C1636.22 330.55 1796.5 603.562 1796.5 914H1811.5C1811.5 598.27 1648.47 320.617 1401.99 160.635L1393.83 173.217ZM1389.26 151.777C1384.6 158.957 1386.65 168.556 1393.83 173.217L1401.99 160.635C1401.76 160.484 1401.7 160.175 1401.85 159.943L1389.26 151.777ZM914 0.5C626.221 0.5 369.515 133.59 202.099 341.517L213.783 350.924C378.474 146.381 630.953 15.5 914 15.5V0.5ZM1213.54 50.7463C1119.68 18.1842 1018.89 0.5 914 0.5V15.5C1017.19 15.5 1116.32 32.8967 1208.62 64.9177L1213.54 50.7463ZM1223.1 70.4705C1225.91 62.383 1221.62 53.5522 1213.54 50.7463L1208.62 64.9177C1208.88 65.0082 1209.02 65.293 1208.93 65.5539L1223.1 70.4705ZM1203.38 80.0338C1211.46 82.8396 1220.29 78.558 1223.1 70.4705L1208.93 65.5539C1208.84 65.8148 1208.55 65.9529 1208.29 65.8624L1203.38 80.0338ZM914 31.5C1015.38 31.5 1112.74 48.59 1203.38 80.0338L1208.29 65.8624C1116.1 33.8775 1017.08 16.5 914 16.5V31.5ZM226.245 360.958C388.03 160.026 636 31.5 914 31.5V16.5C631.268 16.5 379.071 147.234 214.562 351.551L226.245 360.958ZM204.452 363.31C211.119 368.679 220.877 367.626 226.245 360.958L214.562 351.551C214.389 351.766 214.074 351.8 213.859 351.627L204.452 363.31ZM202.099 341.517C196.731 348.184 197.784 357.942 204.452 363.31L213.859 351.627C213.644 351.454 213.61 351.139 213.783 350.924L202.099 341.517ZM108.151 553.713C111.65 545.9 108.152 536.73 100.339 533.231L94.2089 546.922C94.4609 547.034 94.5737 547.33 94.4609 547.582L108.151 553.713ZM31.5 914C31.5 785.632 58.8982 663.705 108.151 553.713L94.4609 547.582C44.3614 659.465 16.5 783.478 16.5 914H31.5ZM16 929.5C24.5604 929.5 31.5 922.56 31.5 914H16.5C16.5 914.276 16.2761 914.5 16 914.5V929.5ZM0.5 914C0.5 922.56 7.43958 929.5 16 929.5V914.5C15.7239 914.5 15.5 914.276 15.5 914H0.5ZM79.8581 541.043C28.8556 654.943 0.5 781.181 0.5 914H15.5C15.5 783.335 43.3923 659.182 93.5482 547.174L79.8581 541.043ZM100.339 533.231C92.5263 529.733 83.3566 533.23 79.8581 541.043L93.5482 547.174C93.6611 546.922 93.9569 546.809 94.2089 546.922L100.339 533.231Z" fill="url(#paint2_linear_0_274)"/>
<circle cx="149" cy="441" r="75" fill="#00BEFF"/>
<g clip-path="url(#clip1_0_274)">
<path d="M119.117 474.688C115.648 474.688 113.086 473.728 111.43 471.806C109.773 469.884 108.945 467.173 108.945 463.673V462.29H115.602V463.368C115.633 465.337 115.891 466.79 116.375 467.728C116.875 468.665 117.805 469.134 119.164 469.134C119.758 469.134 120.266 469.032 120.688 468.829C121.125 468.626 121.469 468.368 121.719 468.056C121.969 467.728 122.156 467.29 122.281 466.743C122.422 466.181 122.516 465.618 122.562 465.056C122.609 464.493 122.633 463.806 122.633 462.993C122.633 460.931 122.297 459.36 121.625 458.282C120.953 457.204 119.781 456.618 118.109 456.524C118.047 456.524 117.875 456.524 117.594 456.524C117.312 456.509 117.148 456.501 117.102 456.501V450.923C117.602 450.923 117.898 450.915 117.992 450.899C119.711 450.853 120.914 450.407 121.602 449.563C122.289 448.704 122.633 447.298 122.633 445.345C122.633 443.626 122.367 442.337 121.836 441.478C121.32 440.618 120.398 440.188 119.07 440.188C118.508 440.188 118.016 440.282 117.594 440.47C117.188 440.657 116.859 440.907 116.609 441.22C116.359 441.532 116.156 441.938 116 442.438C115.859 442.923 115.758 443.423 115.695 443.938C115.648 444.454 115.617 445.056 115.602 445.743V447.056H108.945V445.251C108.945 441.938 109.82 439.376 111.57 437.563C113.336 435.735 115.836 434.821 119.07 434.821C122.336 434.821 124.844 435.712 126.594 437.493C128.359 439.274 129.242 441.813 129.242 445.11C129.242 447.313 128.766 449.149 127.812 450.618C126.859 452.087 125.594 453.048 124.016 453.501C125.688 454.079 126.977 455.157 127.883 456.735C128.789 458.298 129.242 460.353 129.242 462.899C129.242 466.603 128.43 469.493 126.805 471.571C125.18 473.649 122.617 474.688 119.117 474.688ZM150.383 471.595C148.648 473.657 146.148 474.688 142.883 474.688C139.617 474.688 137.117 473.657 135.383 471.595C133.648 469.532 132.781 466.782 132.781 463.345V446.259C132.781 442.712 133.617 439.923 135.289 437.892C136.977 435.845 139.508 434.821 142.883 434.821C146.227 434.821 148.742 435.845 150.43 437.892C152.133 439.938 152.984 442.728 152.984 446.259V463.345C152.984 466.782 152.117 469.532 150.383 471.595ZM139.508 463.251C139.508 467.063 140.633 468.97 142.883 468.97C145.133 468.97 146.258 467.063 146.258 463.251V446.376C146.258 445.876 146.242 445.423 146.211 445.017C146.18 444.595 146.125 444.149 146.047 443.681C145.984 443.212 145.867 442.806 145.695 442.462C145.539 442.103 145.344 441.774 145.109 441.478C144.875 441.165 144.562 440.931 144.172 440.774C143.797 440.618 143.367 440.54 142.883 440.54C142.305 440.54 141.797 440.665 141.359 440.915C140.938 441.149 140.609 441.446 140.375 441.806C140.141 442.165 139.953 442.626 139.812 443.188C139.688 443.735 139.602 444.251 139.555 444.735C139.523 445.204 139.508 445.751 139.508 446.376V463.251ZM170.516 474.149L181.484 435.29H186.102L175.133 474.149H170.516ZM191.117 474.313C188.164 474.313 186.016 473.485 184.672 471.829C183.328 470.173 182.656 467.72 182.656 464.47V462.407C182.656 459.095 183.305 456.657 184.602 455.095C185.914 453.517 188.086 452.728 191.117 452.728C194.148 452.728 196.32 453.493 197.633 455.024C198.961 456.54 199.625 458.931 199.625 462.196V464.587C199.625 467.837 198.953 470.274 197.609 471.899C196.266 473.509 194.102 474.313 191.117 474.313ZM191.117 469.743C191.617 469.743 192.039 469.649 192.383 469.462C192.727 469.274 193 469.04 193.203 468.759C193.406 468.462 193.562 468.071 193.672 467.587C193.781 467.103 193.852 466.626 193.883 466.157C193.914 465.688 193.93 465.118 193.93 464.446V462.337C193.93 461.634 193.914 461.063 193.883 460.626C193.852 460.173 193.781 459.72 193.672 459.267C193.578 458.798 193.43 458.438 193.227 458.188C193.039 457.938 192.766 457.735 192.406 457.579C192.062 457.407 191.633 457.321 191.117 457.321C190.617 457.321 190.188 457.407 189.828 457.579C189.484 457.735 189.211 457.946 189.008 458.212C188.82 458.462 188.672 458.821 188.562 459.29C188.469 459.759 188.406 460.212 188.375 460.649C188.344 461.087 188.328 461.657 188.328 462.36V464.47C188.328 465.313 188.359 466.024 188.422 466.603C188.484 467.165 188.609 467.704 188.797 468.22C188.984 468.735 189.266 469.118 189.641 469.368C190.031 469.618 190.523 469.743 191.117 469.743ZM165.453 456.712C162.5 456.712 160.352 455.884 159.008 454.228C157.664 452.571 156.992 450.118 156.992 446.868V444.806C156.992 441.493 157.641 439.056 158.938 437.493C160.25 435.915 162.422 435.126 165.453 435.126C168.484 435.126 170.656 435.892 171.969 437.423C173.297 438.954 173.961 441.353 173.961 444.618V446.985C173.961 450.235 173.289 452.673 171.945 454.298C170.602 455.907 168.438 456.712 165.453 456.712ZM165.453 452.165C165.938 452.165 166.352 452.071 166.695 451.884C167.055 451.696 167.328 451.462 167.516 451.181C167.719 450.884 167.875 450.493 167.984 450.009C168.109 449.524 168.188 449.048 168.219 448.579C168.25 448.095 168.266 447.517 168.266 446.845V444.735C168.266 444.032 168.25 443.462 168.219 443.024C168.188 442.571 168.117 442.118 168.008 441.665C167.914 441.212 167.766 440.86 167.562 440.61C167.359 440.345 167.078 440.134 166.719 439.978C166.375 439.821 165.953 439.743 165.453 439.743C164.953 439.743 164.523 439.829 164.164 440.001C163.82 440.157 163.547 440.36 163.344 440.61C163.156 440.86 163.008 441.22 162.898 441.688C162.805 442.157 162.742 442.61 162.711 443.048C162.68 443.485 162.664 444.056 162.664 444.759V446.892C162.664 447.735 162.695 448.438 162.758 449.001C162.82 449.563 162.945 450.11 163.133 450.642C163.32 451.157 163.602 451.54 163.977 451.79C164.367 452.04 164.859 452.165 165.453 452.165Z" fill="white"/>
<path opacity="0.7" d="M116.096 406.84C116.096 407.912 115.848 408.888 115.352 409.768C114.856 410.632 114.12 411.32 113.144 411.832C112.184 412.344 111.016 412.6 109.64 412.6H107.528V418H102.2V401.008H109.64C111.72 401.008 113.312 401.536 114.416 402.592C115.536 403.648 116.096 405.064 116.096 406.84ZM109.04 408.4C110.144 408.4 110.696 407.88 110.696 406.84C110.696 405.8 110.144 405.28 109.04 405.28H107.528V408.4H109.04ZM126.33 418L123.138 411.904H123.114V418H117.786V401.008H125.706C127.082 401.008 128.258 401.256 129.234 401.752C130.21 402.232 130.938 402.896 131.418 403.744C131.914 404.576 132.162 405.52 132.162 406.576C132.162 407.712 131.842 408.72 131.202 409.6C130.578 410.48 129.674 411.112 128.49 411.496L132.186 418H126.33ZM123.114 408.352H125.226C125.738 408.352 126.122 408.24 126.378 408.016C126.634 407.776 126.762 407.408 126.762 406.912C126.762 406.464 126.626 406.112 126.354 405.856C126.098 405.6 125.722 405.472 125.226 405.472H123.114V408.352ZM139.192 405.256V407.344H144.472V411.352H139.192V413.752H145.192V418H133.864V401.008H145.192V405.256H139.192ZM153.848 418.168C151.816 418.168 150.136 417.696 148.808 416.752C147.496 415.792 146.784 414.392 146.672 412.552H152.336C152.416 413.528 152.848 414.016 153.632 414.016C153.92 414.016 154.16 413.952 154.352 413.824C154.56 413.68 154.664 413.464 154.664 413.176C154.664 412.776 154.448 412.456 154.016 412.216C153.584 411.96 152.912 411.672 152 411.352C150.912 410.968 150.008 410.592 149.288 410.224C148.584 409.856 147.976 409.32 147.464 408.616C146.952 407.912 146.704 407.008 146.72 405.904C146.72 404.8 147 403.864 147.56 403.096C148.136 402.312 148.912 401.72 149.888 401.32C150.88 400.92 151.992 400.72 153.224 400.72C155.304 400.72 156.952 401.2 158.168 402.16C159.4 403.12 160.048 404.472 160.112 406.216H154.376C154.36 405.736 154.24 405.392 154.016 405.184C153.792 404.976 153.52 404.872 153.2 404.872C152.976 404.872 152.792 404.952 152.648 405.112C152.504 405.256 152.432 405.464 152.432 405.736C152.432 406.12 152.64 406.44 153.056 406.696C153.488 406.936 154.168 407.232 155.096 407.584C156.168 407.984 157.048 408.368 157.736 408.736C158.44 409.104 159.048 409.616 159.56 410.272C160.072 410.928 160.328 411.752 160.328 412.744C160.328 413.784 160.072 414.72 159.56 415.552C159.048 416.368 158.304 417.008 157.328 417.472C156.352 417.936 155.192 418.168 153.848 418.168ZM173.096 415.432H167.432L166.592 418H161L167.216 401.008H173.36L179.552 418H173.936L173.096 415.432ZM171.8 411.424L170.264 406.696L168.728 411.424H171.8ZM186.091 413.968H191.227V418H180.763V401.008H186.091V413.968ZM198.231 405.256V407.344H203.511V411.352H198.231V413.752H204.231V418H192.903V401.008H204.231V405.256H198.231Z" fill="white"/>
</g>
<circle cx="1306" cy="115" r="75" fill="#D600A6"/>
<g clip-path="url(#clip2_0_274)">
<path d="M1255.97 147.149V142.445L1265.57 127.613C1266.27 126.525 1266.93 125.485 1267.54 124.493C1268.18 123.501 1268.69 122.477 1269.07 121.421C1269.49 120.333 1269.7 119.149 1269.7 117.869C1269.7 116.429 1269.44 115.325 1268.93 114.557C1268.42 113.789 1267.62 113.405 1266.53 113.405C1265.5 113.405 1264.7 113.693 1264.13 114.269C1263.55 114.845 1263.15 115.597 1262.93 116.525C1262.74 117.453 1262.64 118.477 1262.64 119.597V121.229H1256.11V119.501C1256.11 117.197 1256.45 115.181 1257.12 113.453C1257.82 111.693 1258.93 110.317 1260.43 109.325C1261.94 108.333 1263.9 107.837 1266.34 107.837C1269.66 107.837 1272.16 108.733 1273.82 110.525C1275.49 112.317 1276.32 114.813 1276.32 118.013C1276.32 119.613 1276.1 121.069 1275.65 122.381C1275.2 123.661 1274.61 124.893 1273.87 126.077C1273.14 127.261 1272.34 128.477 1271.47 129.725L1263.5 141.821H1275.31V147.149H1255.97ZM1280.12 147.149V140.573H1286.45V147.149H1280.12ZM1300.22 147.725C1297.63 147.725 1295.61 147.245 1294.17 146.285C1292.76 145.325 1291.79 143.965 1291.24 142.205C1290.7 140.445 1290.43 138.381 1290.43 136.013H1296.91C1296.91 137.325 1296.99 138.493 1297.15 139.517C1297.34 140.509 1297.69 141.293 1298.2 141.869C1298.75 142.413 1299.53 142.669 1300.55 142.637C1301.67 142.637 1302.46 142.285 1302.91 141.581C1303.39 140.845 1303.69 139.837 1303.82 138.557C1303.95 137.245 1304.01 135.725 1304.01 133.997C1304.01 132.493 1303.91 131.181 1303.72 130.061C1303.56 128.941 1303.23 128.077 1302.71 127.469C1302.2 126.829 1301.4 126.509 1300.31 126.509C1299.39 126.509 1298.62 126.829 1298.01 127.469C1297.4 128.077 1296.95 128.893 1296.67 129.917H1290.95L1291.34 108.269H1308.81V114.221H1296.91L1296.52 123.581C1297 123.005 1297.69 122.541 1298.59 122.189C1299.51 121.837 1300.54 121.629 1301.66 121.565C1303.71 121.469 1305.37 121.901 1306.65 122.861C1307.93 123.821 1308.87 125.213 1309.48 127.037C1310.09 128.861 1310.39 131.037 1310.39 133.565C1310.39 135.613 1310.25 137.501 1309.96 139.229C1309.71 140.957 1309.21 142.461 1308.47 143.741C1307.74 144.989 1306.7 145.965 1305.35 146.669C1304.04 147.373 1302.33 147.725 1300.22 147.725ZM1326.87 147.149L1338.24 108.269H1342.61L1331.28 147.149H1326.87ZM1322.21 129.629C1319.23 129.629 1317.11 128.797 1315.83 127.133C1314.55 125.469 1313.91 123.085 1313.91 119.981V117.581C1313.91 114.413 1314.53 112.045 1315.78 110.477C1317.03 108.909 1319.17 108.125 1322.21 108.125C1325.25 108.125 1327.39 108.893 1328.64 110.429C1329.92 111.933 1330.56 114.269 1330.56 117.437V120.077C1330.56 123.181 1329.92 125.549 1328.64 127.181C1327.36 128.813 1325.22 129.629 1322.21 129.629ZM1322.21 125.213C1323.04 125.213 1323.65 124.989 1324.03 124.541C1324.42 124.093 1324.67 123.469 1324.8 122.669C1324.93 121.837 1324.99 120.909 1324.99 119.885V117.629C1324.99 116.029 1324.85 114.797 1324.56 113.933C1324.27 113.037 1323.49 112.589 1322.21 112.589C1320.96 112.589 1320.19 113.037 1319.91 113.933C1319.62 114.797 1319.47 116.029 1319.47 117.629V119.933C1319.47 120.957 1319.54 121.869 1319.67 122.669C1319.79 123.469 1320.05 124.093 1320.43 124.541C1320.82 124.989 1321.41 125.213 1322.21 125.213ZM1347.22 147.293C1344.24 147.293 1342.11 146.461 1340.83 144.797C1339.59 143.133 1338.96 140.733 1338.96 137.597V135.245C1338.96 132.077 1339.57 129.709 1340.79 128.141C1342.03 126.541 1344.18 125.741 1347.22 125.741C1350.29 125.741 1352.45 126.509 1353.7 128.045C1354.95 129.581 1355.57 131.933 1355.57 135.101V137.693C1355.57 140.829 1354.93 143.213 1353.65 144.845C1352.37 146.477 1350.23 147.293 1347.22 147.293ZM1347.22 142.829C1348.05 142.829 1348.66 142.605 1349.04 142.157C1349.46 141.709 1349.71 141.085 1349.81 140.285C1349.94 139.485 1350 138.573 1350 137.549V135.245C1350 133.645 1349.86 132.413 1349.57 131.549C1349.28 130.653 1348.5 130.205 1347.22 130.205C1345.97 130.205 1345.2 130.653 1344.91 131.549C1344.63 132.445 1344.48 133.677 1344.48 135.245V137.549C1344.48 138.605 1344.55 139.533 1344.67 140.333C1344.8 141.101 1345.06 141.709 1345.44 142.157C1345.83 142.605 1346.42 142.829 1347.22 142.829Z" fill="white"/>
<path opacity="0.7" d="M1265.1 88.218H1258.97L1258.06 91H1252L1258.73 72.592H1265.39L1272.1 91H1266.01L1265.1 88.218ZM1263.7 83.876L1262.04 78.754L1260.37 83.876H1263.7ZM1279.05 72.592V82.966C1279.05 83.8153 1279.23 84.4913 1279.6 84.994C1279.98 85.4793 1280.59 85.722 1281.42 85.722C1282.25 85.722 1282.86 85.4793 1283.26 84.994C1283.66 84.4913 1283.86 83.8153 1283.86 82.966V72.592H1289.61V82.966C1289.61 84.7167 1289.24 86.216 1288.52 87.464C1287.79 88.6947 1286.79 89.622 1285.53 90.246C1284.26 90.87 1282.85 91.182 1281.29 91.182C1279.73 91.182 1278.34 90.87 1277.13 90.246C1275.93 89.622 1275 88.6947 1274.32 87.464C1273.64 86.2333 1273.31 84.734 1273.31 82.966V72.592H1279.05ZM1306.55 72.592V77.168H1301.66V91H1295.89V77.168H1291.06V72.592H1306.55ZM1317.09 91.182C1315.36 91.182 1313.76 90.7747 1312.3 89.96C1310.87 89.1453 1309.72 88.0187 1308.87 86.58C1308.02 85.1413 1307.6 83.5207 1307.6 81.718C1307.6 79.9153 1308.02 78.2947 1308.87 76.856C1309.72 75.4173 1310.87 74.2993 1312.3 73.502C1313.76 72.6873 1315.36 72.28 1317.09 72.28C1318.82 72.28 1320.41 72.6873 1321.85 73.502C1323.29 74.2993 1324.42 75.4173 1325.25 76.856C1326.1 78.2947 1326.53 79.9153 1326.53 81.718C1326.53 83.5207 1326.1 85.1413 1325.25 86.58C1324.42 88.0187 1323.28 89.1453 1321.82 89.96C1320.38 90.7747 1318.8 91.182 1317.09 91.182ZM1317.09 85.8C1318.23 85.8 1319.12 85.436 1319.74 84.708C1320.36 83.9627 1320.68 82.966 1320.68 81.718C1320.68 80.4527 1320.36 79.456 1319.74 78.728C1319.12 77.9827 1318.23 77.61 1317.09 77.61C1315.93 77.61 1315.03 77.9827 1314.41 78.728C1313.79 79.456 1313.47 80.4527 1313.47 81.718C1313.47 82.966 1313.79 83.9627 1314.41 84.708C1315.03 85.436 1315.93 85.8 1317.09 85.8ZM1338.8 86.632H1344.36V91H1333.03V72.592H1338.8V86.632ZM1361.23 78.91C1361.23 80.0713 1360.96 81.1287 1360.43 82.082C1359.89 83.018 1359.09 83.7633 1358.03 84.318C1356.99 84.8727 1355.73 85.15 1354.24 85.15H1351.95V91H1346.18V72.592H1354.24C1356.49 72.592 1358.22 73.164 1359.41 74.308C1360.63 75.452 1361.23 76.986 1361.23 78.91ZM1353.59 80.6C1354.78 80.6 1355.38 80.0367 1355.38 78.91C1355.38 77.7833 1354.78 77.22 1353.59 77.22H1351.95V80.6H1353.59Z" fill="white"/>
</g>
<circle cx="1587" cy="657" r="75" fill="#D600A6"/>
<g clip-path="url(#clip3_0_274)">
<path opacity="0.7" d="M1519.33 649.929H1524.22V642.163L1526.62 649.929H1530.8L1533.19 642.163V649.929H1538.06V634.353H1532.09L1528.75 643.703L1525.32 634.353H1519.33V649.929ZM1550.64 634.353H1540.26V649.929H1550.64V646.035H1545.14V643.835H1549.98V640.161H1545.14V638.247H1550.64V634.353ZM1551.6 638.225H1555.7V649.929H1560.58V638.225H1564.72V634.353H1551.6V638.225ZM1576.8 649.929H1581.95L1576.27 634.353H1570.64L1564.94 649.929H1570.07L1570.84 647.575H1576.03L1576.8 649.929ZM1574.84 643.901H1572.03L1573.43 639.567L1574.84 643.901ZM1582.62 642.119C1582.62 646.761 1585.54 650.039 1590.32 650.039C1594.43 650.039 1597.23 647.575 1597.86 643.901H1592.72C1592.25 644.935 1591.33 645.529 1590.23 645.529C1588.58 645.529 1587.57 644.187 1587.57 642.119C1587.57 640.051 1588.58 638.709 1590.23 638.709C1591.33 638.709 1592.25 639.303 1592.72 640.337H1597.86C1597.23 636.663 1594.43 634.199 1590.32 634.199C1585.54 634.199 1582.62 637.477 1582.62 642.119ZM1599.62 634.353V649.929H1609.21V646.233H1604.51V634.353H1599.62ZM1621.51 649.929H1626.66L1620.98 634.353H1615.35L1609.65 649.929H1614.78L1615.55 647.575H1620.74L1621.51 649.929ZM1619.55 643.901H1616.73L1618.14 639.567L1619.55 643.901ZM1639.8 645.111C1639.8 640.315 1632.56 640.645 1632.56 638.687C1632.56 638.159 1632.87 637.895 1633.27 637.895C1633.79 637.895 1634.3 638.181 1634.34 639.127H1639.6C1639.47 635.893 1637.05 634.089 1633.29 634.089C1629.97 634.089 1627.33 635.717 1627.33 638.841C1627.24 644.165 1634.59 643.395 1634.61 645.507C1634.61 646.057 1634.15 646.277 1633.66 646.277C1633.18 646.277 1632.56 646.079 1632.47 644.935H1627.28C1627.5 648.433 1630.3 650.083 1633.86 650.083C1637.62 650.083 1639.8 647.971 1639.8 645.111ZM1653.55 645.111C1653.55 640.315 1646.31 640.645 1646.31 638.687C1646.31 638.159 1646.62 637.895 1647.02 637.895C1647.54 637.895 1648.05 638.181 1648.09 639.127H1653.35C1653.22 635.893 1650.8 634.089 1647.04 634.089C1643.72 634.089 1641.08 635.717 1641.08 638.841C1640.99 644.165 1648.34 643.395 1648.36 645.507C1648.36 646.057 1647.9 646.277 1647.41 646.277C1646.93 646.277 1646.31 646.079 1646.22 644.935H1641.03C1641.25 648.433 1644.05 650.083 1647.61 650.083C1651.37 650.083 1653.55 647.971 1653.55 645.111ZM1564.06 667.353H1557.57V682.929H1564.06C1569.03 682.929 1572.15 679.541 1572.15 675.097C1572.15 670.609 1569.03 667.353 1564.06 667.353ZM1562.45 678.573V671.621H1563.62C1565.77 671.621 1567.2 672.831 1567.2 675.097C1567.2 677.363 1565.77 678.573 1563.62 678.573H1562.45ZM1573.83 676.131C1573.83 680.729 1576.69 683.083 1580.58 683.083C1584.48 683.083 1587.62 680.729 1587.62 676.131V667.353H1582.76V676.131C1582.76 677.473 1582.17 678.463 1580.69 678.463C1579.22 678.463 1578.69 677.473 1578.69 676.131V667.353H1573.83V676.131ZM1601.76 678.111C1601.76 673.315 1594.52 673.645 1594.52 671.687C1594.52 671.159 1594.83 670.895 1595.23 670.895C1595.76 670.895 1596.26 671.181 1596.31 672.127H1601.56C1601.43 668.893 1599.01 667.089 1595.25 667.089C1591.93 667.089 1589.29 668.717 1589.29 671.841C1589.2 677.165 1596.55 676.395 1596.57 678.507C1596.57 679.057 1596.11 679.277 1595.62 679.277C1595.14 679.277 1594.52 679.079 1594.44 677.935H1589.24C1589.46 681.433 1592.26 683.083 1595.82 683.083C1599.58 683.083 1601.76 680.971 1601.76 678.111ZM1602.6 671.225H1606.69V682.929H1611.57V671.225H1615.71V667.353H1602.6V671.225Z" fill="white"/>
</g>
<circle cx="517" cy="532" r="75" fill="#00BEFF"/>
<g clip-path="url(#clip4_0_274)">
<path d="M485.04 557.149V530.869C484.88 530.949 484.56 531.069 484.08 531.229C483.627 531.389 483.12 531.549 482.56 531.709C482 531.843 481.48 531.976 481 532.109C480.547 532.243 480.227 532.349 480.04 532.429V528.309C480.413 528.176 480.88 527.989 481.44 527.749C482 527.509 482.587 527.243 483.2 526.949C483.84 526.629 484.427 526.283 484.96 525.909C485.52 525.536 485.973 525.149 486.32 524.749H490.56V557.149H485.04ZM505.344 557.629C503.451 557.629 501.877 557.229 500.624 556.429C499.397 555.629 498.464 554.523 497.824 553.109C497.211 551.696 496.904 550.069 496.904 548.229V533.869C496.904 531.976 497.197 530.323 497.784 528.909C498.397 527.469 499.317 526.349 500.544 525.549C501.797 524.749 503.397 524.349 505.344 524.349C507.291 524.349 508.877 524.749 510.104 525.549C511.357 526.349 512.277 527.469 512.864 528.909C513.477 530.323 513.784 531.976 513.784 533.869V548.229C513.784 550.069 513.464 551.696 512.824 553.109C512.211 554.523 511.277 555.629 510.024 556.429C508.797 557.229 507.237 557.629 505.344 557.629ZM505.344 552.869C506.171 552.869 506.784 552.616 507.184 552.109C507.584 551.603 507.851 550.989 507.984 550.269C508.117 549.549 508.184 548.843 508.184 548.149V533.949C508.184 533.203 508.117 532.469 507.984 531.749C507.877 531.003 507.624 530.376 507.224 529.869C506.824 529.363 506.197 529.109 505.344 529.109C504.491 529.109 503.864 529.363 503.464 529.869C503.064 530.376 502.797 531.003 502.664 531.749C502.557 532.469 502.504 533.203 502.504 533.949V548.149C502.504 548.843 502.571 549.549 502.704 550.269C502.864 550.989 503.144 551.603 503.544 552.109C503.944 552.616 504.544 552.869 505.344 552.869ZM528.471 557.149L537.951 524.749H541.591L532.151 557.149H528.471ZM524.591 542.549C522.111 542.549 520.338 541.856 519.271 540.469C518.205 539.083 517.671 537.096 517.671 534.509V532.509C517.671 529.869 518.191 527.896 519.231 526.589C520.271 525.283 522.058 524.629 524.591 524.629C527.125 524.629 528.911 525.269 529.951 526.549C531.018 527.803 531.551 529.749 531.551 532.389V534.589C531.551 537.176 531.018 539.149 529.951 540.509C528.885 541.869 527.098 542.549 524.591 542.549ZM524.591 538.869C525.285 538.869 525.791 538.683 526.111 538.309C526.431 537.936 526.645 537.416 526.751 536.749C526.858 536.056 526.911 535.283 526.911 534.429V532.549C526.911 531.216 526.791 530.189 526.551 529.469C526.311 528.723 525.658 528.349 524.591 528.349C523.551 528.349 522.911 528.723 522.671 529.469C522.431 530.189 522.311 531.216 522.311 532.549V534.469C522.311 535.323 522.365 536.083 522.471 536.749C522.578 537.416 522.791 537.936 523.111 538.309C523.431 538.683 523.925 538.869 524.591 538.869ZM545.431 557.269C542.951 557.269 541.178 556.576 540.111 555.189C539.071 553.803 538.551 551.803 538.551 549.189V547.229C538.551 544.589 539.058 542.616 540.071 541.309C541.111 539.976 542.898 539.309 545.431 539.309C547.991 539.309 549.791 539.949 550.831 541.229C551.871 542.509 552.391 544.469 552.391 547.109V549.269C552.391 551.883 551.858 553.869 550.791 555.229C549.725 556.589 547.938 557.269 545.431 557.269ZM545.431 553.549C546.125 553.549 546.631 553.363 546.951 552.989C547.298 552.616 547.511 552.096 547.591 551.429C547.698 550.763 547.751 550.003 547.751 549.149V547.229C547.751 545.896 547.631 544.869 547.391 544.149C547.151 543.403 546.498 543.029 545.431 543.029C544.391 543.029 543.751 543.403 543.511 544.149C543.271 544.896 543.151 545.923 543.151 547.229V549.149C543.151 550.029 543.205 550.803 543.311 551.469C543.418 552.109 543.631 552.616 543.951 552.989C544.271 553.363 544.765 553.549 545.431 553.549Z" fill="white"/>
</g>
<circle cx="1194" cy="443" r="75" fill="#D600A6"/>
<g clip-path="url(#clip5_0_274)">
<path d="M1167.63 479.143V475.111L1175.86 462.397C1176.46 461.465 1177.02 460.573 1177.54 459.723C1178.09 458.873 1178.53 457.995 1178.86 457.09C1179.22 456.157 1179.4 455.143 1179.4 454.045C1179.4 452.811 1179.18 451.865 1178.74 451.207C1178.3 450.548 1177.61 450.219 1176.68 450.219C1175.8 450.219 1175.12 450.466 1174.62 450.96C1174.13 451.453 1173.79 452.098 1173.59 452.893C1173.43 453.689 1173.35 454.567 1173.35 455.527V456.925H1167.75V455.444C1167.75 453.469 1168.04 451.741 1168.62 450.26C1169.22 448.752 1170.17 447.572 1171.46 446.722C1172.74 445.872 1174.43 445.447 1176.52 445.447C1179.37 445.447 1181.51 446.215 1182.93 447.751C1184.36 449.287 1185.07 451.426 1185.07 454.169C1185.07 455.54 1184.88 456.788 1184.5 457.913C1184.11 459.01 1183.61 460.066 1182.98 461.081C1182.34 462.096 1181.66 463.138 1180.92 464.208L1174.09 474.576H1184.21V479.143H1167.63ZM1199.19 479.143L1208.94 445.817H1212.68L1202.97 479.143H1199.19ZM1195.2 464.125C1192.65 464.125 1190.82 463.412 1189.73 461.986C1188.63 460.56 1188.08 458.516 1188.08 455.856V453.799C1188.08 451.083 1188.61 449.053 1189.68 447.709C1190.75 446.365 1192.59 445.693 1195.2 445.693C1197.8 445.693 1199.64 446.352 1200.71 447.668C1201.81 448.957 1202.36 450.96 1202.36 453.675V455.938C1202.36 458.599 1201.81 460.628 1200.71 462.027C1199.61 463.426 1197.78 464.125 1195.2 464.125ZM1195.2 460.34C1195.91 460.34 1196.43 460.148 1196.76 459.764C1197.09 459.38 1197.31 458.845 1197.42 458.16C1197.53 457.447 1197.58 456.651 1197.58 455.773V453.84C1197.58 452.468 1197.46 451.412 1197.21 450.672C1196.97 449.904 1196.29 449.52 1195.2 449.52C1194.13 449.52 1193.47 449.904 1193.22 450.672C1192.98 451.412 1192.85 452.468 1192.85 453.84V455.815C1192.85 456.692 1192.91 457.474 1193.02 458.16C1193.13 458.845 1193.35 459.38 1193.68 459.764C1194 460.148 1194.51 460.34 1195.2 460.34ZM1216.63 479.266C1214.08 479.266 1212.26 478.553 1211.16 477.127C1210.09 475.7 1209.56 473.643 1209.56 470.955V468.939C1209.56 466.224 1210.08 464.194 1211.12 462.85C1212.19 461.479 1214.03 460.793 1216.63 460.793C1219.27 460.793 1221.12 461.451 1222.19 462.768C1223.26 464.084 1223.79 466.1 1223.79 468.816V471.037C1223.79 473.725 1223.24 475.769 1222.15 477.168C1221.05 478.567 1219.21 479.266 1216.63 479.266ZM1216.63 475.44C1217.35 475.44 1217.87 475.248 1218.2 474.864C1218.55 474.48 1218.77 473.945 1218.85 473.259C1218.96 472.573 1219.02 471.792 1219.02 470.914V468.939C1219.02 467.568 1218.9 466.512 1218.65 465.771C1218.4 465.003 1217.73 464.619 1216.63 464.619C1215.56 464.619 1214.9 465.003 1214.66 465.771C1214.41 466.539 1214.29 467.595 1214.29 468.939V470.914C1214.29 471.819 1214.34 472.615 1214.45 473.3C1214.56 473.959 1214.78 474.48 1215.11 474.864C1215.44 475.248 1215.95 475.44 1216.63 475.44Z" fill="white"/>
<path opacity="0.7" d="M1169.97 429L1165.98 421.38H1165.95V429H1159.29V407.76H1169.19C1170.91 407.76 1172.38 408.07 1173.6 408.69C1174.82 409.29 1175.73 410.12 1176.33 411.18C1176.95 412.22 1177.26 413.4 1177.26 414.72C1177.26 416.14 1176.86 417.4 1176.06 418.5C1175.28 419.6 1174.15 420.39 1172.67 420.87L1177.29 429H1169.97ZM1165.95 416.94H1168.59C1169.23 416.94 1169.71 416.8 1170.03 416.52C1170.35 416.22 1170.51 415.76 1170.51 415.14C1170.51 414.58 1170.34 414.14 1170 413.82C1169.68 413.5 1169.21 413.34 1168.59 413.34H1165.95V416.94ZM1199.48 407.76V413.04H1191.14V415.98H1197.14V420.99H1191.14V429H1184.48V407.76H1199.48ZM1228.22 407.76L1221.08 429H1212.47L1205.33 407.76H1212.41L1216.79 422.37L1221.14 407.76H1228.22Z" fill="white"/>
</g>
<circle cx="814" cy="204" r="75" fill="#00BEFF"/>
<g clip-path="url(#clip6_0_274)">
<path d="M778.152 238.149V228.597H766.536V222.933L776.664 199.269H784.392V223.317H788.376V228.597H784.392V238.149H778.152ZM772.104 223.317H778.152V206.421L772.104 223.317ZM802.004 238.725C799.732 238.725 797.844 238.245 796.34 237.285C794.868 236.325 793.748 234.997 792.98 233.301C792.244 231.605 791.876 229.653 791.876 227.445V210.213C791.876 207.941 792.228 205.957 792.932 204.261C793.668 202.533 794.772 201.189 796.243 200.229C797.748 199.269 799.668 198.789 802.004 198.789C804.34 198.789 806.244 199.269 807.716 200.229C809.22 201.189 810.324 202.533 811.028 204.261C811.764 205.957 812.132 207.941 812.132 210.213V227.445C812.132 229.653 811.748 231.605 810.98 233.301C810.244 234.997 809.124 236.325 807.62 237.285C806.148 238.245 804.276 238.725 802.004 238.725ZM802.004 233.013C802.996 233.013 803.732 232.709 804.212 232.101C804.692 231.493 805.012 230.757 805.172 229.893C805.332 229.029 805.412 228.181 805.412 227.349V210.309C805.412 209.413 805.332 208.533 805.172 207.669C805.044 206.773 804.74 206.021 804.26 205.413C803.78 204.805 803.028 204.501 802.004 204.501C800.98 204.501 800.228 204.805 799.748 205.413C799.268 206.021 798.948 206.773 798.788 207.669C798.66 208.533 798.596 209.413 798.596 210.309V227.349C798.596 228.181 798.676 229.029 798.836 229.893C799.028 230.757 799.364 231.493 799.844 232.101C800.324 232.709 801.044 233.013 802.004 233.013ZM829.756 238.149L841.132 199.269H845.5L834.172 238.149H829.756ZM825.1 220.629C822.124 220.629 819.996 219.797 818.716 218.133C817.436 216.469 816.796 214.085 816.796 210.981V208.581C816.796 205.413 817.42 203.045 818.668 201.477C819.916 199.909 822.06 199.125 825.1 199.125C828.14 199.125 830.284 199.893 831.532 201.429C832.812 202.933 833.452 205.269 833.452 208.437V211.077C833.452 214.181 832.812 216.549 831.532 218.181C830.252 219.813 828.108 220.629 825.1 220.629ZM825.1 216.213C825.932 216.213 826.54 215.989 826.924 215.541C827.308 215.093 827.564 214.469 827.692 213.669C827.82 212.837 827.884 211.909 827.884 210.885V208.629C827.884 207.029 827.74 205.797 827.452 204.933C827.164 204.037 826.38 203.589 825.1 203.589C823.852 203.589 823.084 204.037 822.796 204.933C822.508 205.797 822.364 207.029 822.364 208.629V210.933C822.364 211.957 822.428 212.869 822.556 213.669C822.684 214.469 822.94 215.093 823.324 215.541C823.708 215.989 824.3 216.213 825.1 216.213ZM850.108 238.293C847.132 238.293 845.004 237.461 843.724 235.797C842.476 234.133 841.852 231.733 841.852 228.597V226.245C841.852 223.077 842.46 220.709 843.676 219.141C844.924 217.541 847.068 216.741 850.108 216.741C853.18 216.741 855.34 217.509 856.588 219.045C857.836 220.581 858.46 222.933 858.46 226.101V228.693C858.46 231.829 857.82 234.213 856.54 235.845C855.26 237.477 853.116 238.293 850.108 238.293ZM850.108 233.829C850.94 233.829 851.548 233.605 851.932 233.157C852.348 232.709 852.604 232.085 852.7 231.285C852.828 230.485 852.892 229.573 852.892 228.549V226.245C852.892 224.645 852.748 223.413 852.46 222.549C852.172 221.653 851.388 221.205 850.108 221.205C848.86 221.205 848.092 221.653 847.804 222.549C847.516 223.445 847.372 224.677 847.372 226.245V228.549C847.372 229.605 847.436 230.533 847.564 231.333C847.692 232.101 847.948 232.709 848.332 233.157C848.716 233.605 849.308 233.829 850.108 233.829Z" fill="white"/>
<path opacity="0.7" d="M776.376 172.841C776.376 173.849 775.848 174.281 774.84 174.281H772.728V171.401H774.84C775.848 171.401 776.376 171.977 776.376 172.841ZM767.4 166.937V183.929H772.728V177.833H772.752L775.944 183.929H781.8L778.104 177.425C780.528 176.633 781.776 174.737 781.776 172.505C781.776 169.385 779.592 166.937 775.32 166.937H767.4ZM794.806 166.937H783.478V183.929H794.806V179.681H788.806V177.281H794.086V173.273H788.806V171.185H794.806V166.937ZM800.222 183.929H806.846L808.814 174.281L810.782 183.929H817.406L821.294 166.937H815.558L814.022 177.641L811.718 166.937H805.91L803.606 177.641L802.07 166.937H796.334L800.222 183.929ZM834.941 183.929H840.557L834.365 166.937H828.221L822.005 183.929H827.597L828.437 181.361H834.101L834.941 183.929ZM832.805 177.353H829.733L831.269 172.625L832.805 177.353ZM850.743 172.841C850.743 173.849 850.215 174.281 849.207 174.281H847.095V171.401H849.207C850.215 171.401 850.743 171.977 850.743 172.841ZM841.767 166.937V183.929H847.095V177.833H847.119L850.311 183.929H856.167L852.471 177.425C854.895 176.633 856.143 174.737 856.143 172.505C856.143 169.385 853.959 166.937 849.687 166.937H841.767ZM864.926 166.937H857.846V183.929H864.926C870.35 183.929 873.758 180.233 873.758 175.385C873.758 170.489 870.35 166.937 864.926 166.937ZM863.174 179.177V171.593H864.446C866.798 171.593 868.358 172.913 868.358 175.385C868.358 177.857 866.798 179.177 864.446 179.177H863.174Z" fill="white"/>
</g>
<defs>
<linearGradient id="paint0_linear_0_274" x1="2696.42" y1="1107.78" x2="2493.34" y2="-271.42" gradientUnits="userSpaceOnUse">
<stop stop-color="#D600A6"/>
<stop offset="1" stop-color="#00BEFF"/>
</linearGradient>
<linearGradient id="paint1_linear_0_274" x1="3239.79" y1="1163.67" x2="2976.39" y2="-630.738" gradientUnits="userSpaceOnUse">
<stop stop-color="#D600A6"/>
<stop offset="1" stop-color="#00BEFF"/>
</linearGradient>
<linearGradient id="paint2_linear_0_274" x1="3809.83" y1="1222.53" x2="3482.73" y2="-1009.03" gradientUnits="userSpaceOnUse">
<stop stop-color="#D600A6"/>
<stop offset="1" stop-color="#00BEFF"/>
</linearGradient>
<clipPath id="clip0_0_274">
<rect width="479" height="278" fill="white" transform="translate(655 583)"/>
</clipPath>
<clipPath id="clip1_0_274">
<rect width="109" height="88.2208" fill="white" transform="translate(100 394.929)"/>
</clipPath>
<clipPath id="clip2_0_274">
<rect width="117.2" height="88.2208" fill="white" transform="translate(1246 64.9287)"/>
</clipPath>
<clipPath id="clip3_0_274">
<rect width="127" height="62" fill="white" transform="translate(1523.2 625.929)"/>
</clipPath>
<clipPath id="clip4_0_274">
<rect width="71" height="88.2208" fill="white" transform="translate(481 485.929)"/>
</clipPath>
<clipPath id="clip5_0_274">
<rect width="118.029" height="75.9035" fill="white" transform="translate(1134.43 404.857)"/>
</clipPath>
<clipPath id="clip6_0_274">
<rect width="109" height="88.2208" fill="white" transform="translate(765 157.929)"/>
</clipPath>
</defs>
</svg>
