<?xml version="1.0" encoding="UTF-8"?>
<svg width="20px" height="20px" viewBox="0 0 20 20" version="1.1" xmlns="http://www.w3.org/2000/svg" xmlns:xlink="http://www.w3.org/1999/xlink">
    <title>instagram</title>
    <defs>
        <linearGradient x1="-175.54762%" y1="-21.8824984%" x2="428.817927%" y2="187.930241%" id="linearGradient-1">
            <stop stop-color="#D600A6" offset="0%"></stop>
            <stop stop-color="#00BEFF" offset="100%"></stop>
        </linearGradient>
    </defs>
    <g id="Page-1" stroke="none" stroke-width="1" fill="none" fill-rule="evenodd">
        <g id="MetaClass---Landing-page" transform="translate(-1510.000000, -9952.000000)" fill="url(#linearGradient-1)" fill-rule="nonzero">
            <g id="Footer" transform="translate(0.000000, 9866.000000)">
                <g id="social-media" transform="translate(226.666667, 86.000000)">
                    <g transform="translate(1199.333333, 0.000000)">
                        <g id="instagram" transform="translate(84.578421, 0.578421)">
                            <path d="M9.41052607,5.8334209 C7.43842086,5.8334209 5.83263142,7.43842086 5.83263142,9.41052607 C5.83263142,11.3834208 7.43842086,12.9892102 9.41052607,12.9892102 C11.3834208,12.9892102 12.9884207,11.3834208 12.9884207,9.41052607 C12.9884207,7.43842086 11.3834208,5.8334209 9.41052607,5.8334209 Z M9.41052607,5.8334209 C7.43842086,5.8334209 5.83263142,7.43842086 5.83263142,9.41052607 C5.83263142,11.3834208 7.43842086,12.9892102 9.41052607,12.9892102 C11.3834208,12.9892102 12.9884207,11.3834208 12.9884207,9.41052607 C12.9884207,7.43842086 11.3834208,5.8334209 9.41052607,5.8334209 Z M9.41052607,5.8334209 C7.43842086,5.8334209 5.83263142,7.43842086 5.83263142,9.41052607 C5.83263142,11.3834208 7.43842086,12.9892102 9.41052607,12.9892102 C11.3834208,12.9892102 12.9884207,11.3834208 12.9884207,9.41052607 C12.9884207,7.43842086 11.3834208,5.8334209 9.41052607,5.8334209 Z M15.3710522,0 L3.45078938,0 C1.54815785,0 0,1.54815785 0,3.45078938 L0,15.3710522 C0,17.2736838 1.54815785,18.8218416 3.45078938,18.8218416 L15.3710522,18.8218416 C17.2736838,18.8218416 18.8218416,17.2736838 18.8218416,15.3710522 L18.8218416,3.45078938 C18.8218416,1.54815785 17.2736838,0 15.3710522,0 Z M9.41052607,15.6071048 C5.99447353,15.6071048 3.21473676,12.8273681 3.21473676,9.41052607 C3.21473676,5.99447353 5.99447353,3.21473676 9.41052607,3.21473676 C12.8273681,3.21473676 15.6071048,5.99447353 15.6071048,9.41052607 C15.6071048,12.8273681 12.8273681,15.6071048 9.41052607,15.6071048 Z M15.8060522,4.49605251 C14.9976312,4.49605251 14.3399996,3.83842095 14.3399996,3.02999992 C14.3399996,2.22157889 14.9976312,1.56394733 15.8060522,1.56394733 C16.6144732,1.56394733 17.2721048,2.22157889 17.2721048,3.02999992 C17.2721048,3.83842095 16.6144732,4.49605251 15.8060522,4.49605251 Z M9.41052607,5.8334209 C7.43842086,5.8334209 5.83263142,7.43842086 5.83263142,9.41052607 C5.83263142,11.3834208 7.43842086,12.9892102 9.41052607,12.9892102 C11.3834208,12.9892102 12.9884207,11.3834208 12.9884207,9.41052607 C12.9884207,7.43842086 11.3834208,5.8334209 9.41052607,5.8334209 Z" id="Shape"></path>
                        </g>
                    </g>
                </g>
            </g>
        </g>
    </g>
</svg>