<?xml version="1.0" encoding="UTF-8"?>
<svg width="23px" height="18px" viewBox="0 0 23 18" version="1.1" xmlns="http://www.w3.org/2000/svg" xmlns:xlink="http://www.w3.org/1999/xlink">
    <title>medium</title>
    <defs>
        <linearGradient x1="-175.54762%" y1="5.3787246%" x2="428.817927%" y2="135.620609%" id="linearGradient-1">
            <stop stop-color="#D600A6" offset="0%"></stop>
            <stop stop-color="#00BEFF" offset="100%"></stop>
        </linearGradient>
    </defs>
    <g id="Page-1" stroke="none" stroke-width="1" fill="none" fill-rule="evenodd">
        <g id="MetaClass---Landing-page" transform="translate(-1556.000000, -9953.000000)" fill="url(#linearGradient-1)" fill-rule="nonzero">
            <g id="Footer" transform="translate(0.000000, 9866.000000)">
                <g id="social-media" transform="translate(226.666667, 86.000000)">
                    <g transform="translate(1199.333333, 0.000000)">
                        <g id="medium" transform="translate(130.666667, 1.333333)">
                            <path d="M20.2445833,2.03712281 L22,0.365824561 L22,0 L15.9188333,0 L11.5848333,10.7357193 L6.65408333,0 L0.27775,0 L0.27775,0.365824561 L2.32833333,2.82259649 C2.52816667,3.00414035 2.63266667,3.26961404 2.60608333,3.53691228 L2.60608333,13.1915789 C2.66933333,13.5391579 2.55566667,13.8967719 2.31,14.1494737 L0,16.9355789 L0,17.2968421 L6.54958333,17.2968421 L6.54958333,16.9310175 L4.23958333,14.1494737 C3.98933333,13.8958596 3.87108333,13.5446316 3.9215,13.1915789 L3.9215,4.8405614 L9.67083333,17.3014035 L10.3390833,17.3014035 L15.2826667,4.8405614 L15.2826667,14.7670877 C15.2826667,15.0289123 15.2826667,15.0827368 15.1103333,15.2542456 L13.332,16.9665965 L13.332,17.3333333 L21.9596667,17.3333333 L21.9596667,16.9675088 L20.2455,15.2971228 C20.0951667,15.184 20.01725,14.9942456 20.0493333,14.8099649 L20.0493333,2.5242807 C20.01725,2.33908772 20.09425,2.14933333 20.2445833,2.03712281 L20.2445833,2.03712281 Z" id="Path"></path>
                        </g>
                    </g>
                </g>
            </g>
        </g>
    </g>
</svg>