<?xml version="1.0" encoding="UTF-8"?>
<svg width="26px" height="26px" viewBox="0 0 26 26" version="1.1" xmlns="http://www.w3.org/2000/svg" xmlns:xlink="http://www.w3.org/1999/xlink">
    <title>moon-unslected</title>
    <g id="Page-1" stroke="none" stroke-width="1" fill="none" fill-rule="evenodd" opacity="0.4">
        <g id="MetaClass---Landing-page" transform="translate(-1610.000000, -52.000000)" fill="#FFFFFF" fill-rule="nonzero">
            <g id="theme" transform="translate(1587.333333, 33.333333)">
                <g id="moon-unslected" transform="translate(23.450331, 19.291726)">
                    <path d="M9.32247212,0.024325803 C9.57614483,-0.0391543281 9.82981755,0.024325803 10.0517812,0.183026131 C10.4005811,0.468686721 10.4639993,0.97652777 10.1786175,1.32566849 C9.51272666,2.11917013 9.00538124,3.03963203 8.65658126,4.05531413 C8.33949037,5.0075161 8.14923584,6.05493826 8.14923584,7.13410049 C8.14923584,9.7050458 9.19563577,12.0538107 10.8762175,13.7360341 C12.5567992,15.4182576 14.9032718,16.4656798 17.471708,16.4656798 C18.6132352,16.4656798 19.6913442,16.2752394 20.6743259,15.8943586 C21.7207259,15.5134778 22.6719985,14.9421566 23.4964348,14.2438752 C23.7183985,14.0851748 23.9720712,14.0216947 24.2257439,14.0851748 C24.6696711,14.180395 24.9233438,14.624756 24.7647984,15.1008569 C24.0989075,17.8939827 22.5134531,20.3379678 20.325526,22.0519313 C18.1693079,23.7341548 15.4740354,24.7498369 12.5567992,24.7498369 C9.1005085,24.7498369 5.96130871,23.353274 3.67825431,21.0679893 C1.39519991,18.7827046 0,15.6404381 0,12.1807709 C0,9.29242495 0.982981755,6.65799951 2.60014529,4.53141511 C4.280727,2.37309066 6.62719957,0.754347311 9.32247212,0.024325803 Z M7.61018133,2.46831085 C6.18327233,3.19833236 4.94661786,4.24575452 3.96363611,5.51535715 C2.53672711,7.35628095 1.7122908,9.64156567 1.7122908,12.1490309 C1.7122908,15.1643371 2.94894526,17.8939827 4.91490877,19.8618668 C6.88087228,21.8297508 9.60785392,23.0676134 12.6202174,23.0676134 C15.1886536,23.0676134 17.5351261,22.1788916 19.3742533,20.7188486 C20.6743259,19.7031665 21.7207259,18.4018238 22.481744,16.9417808 C22.1012349,17.1322211 21.6890168,17.2909215 21.2767986,17.4496218 C20.1035623,17.8939827 18.8351988,18.1161632 17.503417,18.1161632 C14.4910536,18.1161632 11.7323629,16.8783006 9.76639937,14.9104166 C7.80043586,12.9425325 6.56378139,10.1811468 6.56378139,7.16584056 C6.56378139,5.89623793 6.75403593,4.69011544 7.16625408,3.54747308 C7.29309044,3.16659229 7.45163588,2.81745157 7.61018133,2.46831085 Z" id="Combined-Shape"></path>
                </g>
            </g>
        </g>
    </g>
</svg>