<?xml version="1.0" encoding="UTF-8"?>
<svg width="33px" height="20px" viewBox="0 0 33 20" version="1.1" xmlns="http://www.w3.org/2000/svg" xmlns:xlink="http://www.w3.org/1999/xlink">
    <title>toggle</title>
    <g id="Page-1" stroke="none" stroke-width="1" fill="none" fill-rule="evenodd">
        <g id="MetaClass---Landing-page" transform="translate(-1654.000000, -55.000000)" fill="#FFFFFF" fill-rule="nonzero">
            <g id="theme" transform="translate(1587.333333, 33.333333)">
                <path d="M89.7200968,22.3529412 L76.2799032,22.3529412 C71.0934661,22.3529412 66.8719647,26.5308948 66.8719647,31.6665448 C66.8719647,36.8024385 71.0934661,40.9803922 76.2799032,40.9803922 L89.7200968,40.9803922 C94.9065339,40.9803922 99.1280353,36.8024385 99.1280353,31.6665448 C99.1280353,26.5308948 94.9065339,22.3529412 89.7200968,22.3529412 Z M76.2799032,36.9888129 C73.3152054,36.9888129 70.9039735,34.6017589 70.9039735,31.6665448 C70.9039735,28.7315745 73.3152054,26.3445204 76.2799032,26.3445204 C79.2448472,26.3445204 81.6560791,28.7315745 81.6560791,31.6665448 C81.6560791,34.6017589 79.2448472,36.9888129 76.2799032,36.9888129 Z" id="toggle" transform="translate(83.000000, 31.666667) scale(-1, 1) translate(-83.000000, -31.666667) "></path>
            </g>
        </g>
    </g>
</svg>