<?xml version="1.0" encoding="UTF-8"?>
<svg width="22px" height="18px" viewBox="0 0 22 18" version="1.1" xmlns="http://www.w3.org/2000/svg" xmlns:xlink="http://www.w3.org/1999/xlink">
    <title>twitter</title>
    <defs>
        <linearGradient x1="-175.54762%" y1="2.54631943%" x2="428.817927%" y2="141.055511%" id="linearGradient-1">
            <stop stop-color="#D600A6" offset="0%"></stop>
            <stop stop-color="#00BEFF" offset="100%"></stop>
        </linearGradient>
    </defs>
    <g id="Page-1" stroke="none" stroke-width="1" fill="none" fill-rule="evenodd">
        <g id="MetaClass---Landing-page" transform="translate(-1605.000000, -9953.000000)" fill="url(#linearGradient-1)" fill-rule="nonzero">
            <g id="Footer" transform="translate(0.000000, 9866.000000)">
                <g id="social-media" transform="translate(226.666667, 86.000000)">
                    <g transform="translate(1199.333333, 0.000000)">
                        <g id="twitter" transform="translate(179.333333, 1.333333)">
                            <path d="M19.1620534,4.32462358 C19.1686761,4.49506088 19.1723058,4.66613509 19.1723058,4.83841943 C19.1723058,11.7386461 13.5792715,17.3333333 6.67966126,17.3333333 C4.22367027,17.3333333 1.93267286,16.6243244 0.00127359002,15.399163 C0.000827833514,15.3990993 0.000382077006,15.3990356 0,15.3989719 L0.00127359002,15.399163 C0.00127359002,15.399163 0.00127359002,15.399163 0.00127359002,15.399163 C3.77702225,15.9623831 6.43672397,13.5592554 6.43672397,13.5592554 C3.07240857,13.2975488 2.40765826,10.4971798 2.40765826,10.4971798 C3.5963635,10.6984436 4.34147734,10.4161648 4.34147734,10.4161648 C0.554775813,9.53009464 0.87686673,6.06421775 0.87686673,6.06421775 C1.75373346,6.58826786 2.77024934,6.62877538 2.77024934,6.62877538 C-0.573497587,3.68701229 1.52168536,0.826200546 1.52168536,0.826200546 C5.02736925,5.07235673 10.1805055,5.36125942 10.5188984,5.37520776 C10.4445844,5.05605182 10.4052942,4.72364813 10.4052942,4.38213661 C10.4052942,1.96200338 12.3675143,0 14.7890547,0 C16.0515008,0 17.1888167,0.533094247 17.9889496,1.38719148 C18.2107453,1.32496531 18.4258547,1.25783492 18.6313484,1.18955809 C19.8726529,0.775502455 20.759199,0.302214122 20.759199,0.302214122 C20.5452995,1.58425165 18.9649653,2.66012118 18.8519342,2.73565879 C18.8477314,2.73865227 18.8453115,2.7398624 18.8453115,2.7398624 C18.8477314,2.7398624 18.8507243,2.73928918 18.8531441,2.73928918 C20.0799297,2.61655649 21.3333333,2.09556355 21.3333333,2.09556355 C20.9550771,2.89087393 19.4116134,4.12813663 19.1620534,4.32462358 Z" id="Path"></path>
                        </g>
                    </g>
                </g>
            </g>
        </g>
    </g>
</svg>