<?xml version="1.0" encoding="UTF-8"?>
<svg width="20px" height="20px" viewBox="0 0 20 20" version="1.1" xmlns="http://www.w3.org/2000/svg" xmlns:xlink="http://www.w3.org/1999/xlink">
    <title>in</title>
    <defs>
        <linearGradient x1="-175.54762%" y1="-21.5743808%" x2="428.817927%" y2="187.339016%" id="linearGradient-1">
            <stop stop-color="#D600A6" offset="0%"></stop>
            <stop stop-color="#00BEFF" offset="100%"></stop>
        </linearGradient>
        <linearGradient x1="28.271361%" y1="-21.8824984%" x2="86.4942799%" y2="187.930241%" id="linearGradient-2">
            <stop stop-color="#D600A6" offset="0%"></stop>
            <stop stop-color="#00BEFF" offset="100%"></stop>
        </linearGradient>
        <linearGradient x1="-151.551089%" y1="-21.8824984%" x2="388.514616%" y2="187.930241%" id="linearGradient-3">
            <stop stop-color="#D600A6" offset="0%"></stop>
            <stop stop-color="#00BEFF" offset="100%"></stop>
        </linearGradient>
    </defs>
    <g id="Page-1" stroke="none" stroke-width="1" fill="none" fill-rule="evenodd">
        <g id="MetaClass---Landing-page" transform="translate(-1426.000000, -9952.000000)" fill-rule="nonzero">
            <g id="Footer" transform="translate(0.000000, 9866.000000)">
                <g id="social-media" transform="translate(226.666667, 86.000000)">
                    <g transform="translate(1199.333333, 0.000000)" id="in">
                        <path d="M2.36891445,0 C3.65631162,0.00104921086 4.71809202,1.06437155 4.71532196,2.35818319 C4.71223265,3.71293234 3.58797281,4.7340055 2.3530633,4.70458527 C1.10051399,4.72993478 -0.000246669057,3.68375882 0,2.34923994 C0,1.05493487 1.06591284,-0.00098615093 2.36891445,0 Z" id="Path" fill="url(#linearGradient-1)"></path>
                        <path d="M3.73667757,19.5675989 L0.978392285,19.5675989 C0.620415321,19.5675989 0.330222072,19.2774056 0.330222072,18.9194286 L0.330222072,7.15244705 C0.330222072,6.79447008 0.620415321,6.50427683 0.978392285,6.50427683 L3.73667757,6.50427683 C4.09465454,6.50427683 4.38484779,6.79447008 4.38484779,7.15244705 L4.38484779,18.9194903 C4.38478611,19.2774056 4.09465454,19.5675989 3.73667757,19.5675989 Z" id="Path" fill="url(#linearGradient-2)"></path>
                        <path d="M19.6157684,10.6373565 C19.6157684,8.17049801 17.6159946,6.17066253 15.1490745,6.17066253 L14.4416321,6.17066253 C13.0920022,6.17066253 11.8996502,6.8440589 11.1824627,7.87333519 C11.1042555,7.9855268 11.031846,8.10203584 10.9653575,8.22230722 C10.9423517,8.21885327 10.928721,8.21706462 10.9284126,8.21768139 L10.9284126,6.77331466 C10.9284126,6.62473325 10.8079562,6.50421516 10.6593131,6.50421516 L7.21800972,6.50421516 C7.06942831,6.50421516 6.94891022,6.62467157 6.94891022,6.77331466 L6.94891022,19.2986227 C6.94891022,19.4472041 7.06930495,19.5676605 7.21788636,19.5677222 L10.7341897,19.5685857 C10.8828328,19.5686474 11.0033509,19.4481293 11.0033509,19.2994862 L11.0033509,12.0632816 C11.0033509,10.8124593 12.0009866,9.77386968 13.2517472,9.7597455 C13.890234,9.75252922 14.4690786,10.008368 14.8862661,10.4258022 C15.2979643,10.8372537 15.5525079,11.4061682 15.5525079,12.0342931 L15.5525079,19.3004114 C15.5525079,19.4489928 15.6729643,19.5694492 15.821484,19.5695109 L19.3464839,19.5703744 C19.495127,19.5703744 19.6157684,19.4499179 19.6157684,19.3012749 L19.6157684,10.6373565 L19.6157684,10.6373565 Z" id="Path" fill="url(#linearGradient-3)"></path>
                    </g>
                </g>
            </g>
        </g>
    </g>
</svg>