<?xml version="1.0" encoding="UTF-8"?>
<svg width="25px" height="25px" viewBox="0 0 25 25" version="1.1" xmlns="http://www.w3.org/2000/svg" xmlns:xlink="http://www.w3.org/1999/xlink">
    <title>sun-selected</title>
    <defs>
        <linearGradient x1="-5.40032682%" y1="16.5873187%" x2="111.833389%" y2="197.310338%" id="linearGradient-1">
            <stop stop-color="#D600A6" offset="0%"></stop>
            <stop stop-color="#00BEFF" offset="100%"></stop>
        </linearGradient>
        <linearGradient x1="32.892943%" y1="16.5873187%" x2="69.093521%" y2="197.310338%" id="linearGradient-2">
            <stop stop-color="#D600A6" offset="0%"></stop>
            <stop stop-color="#00BEFF" offset="100%"></stop>
        </linearGradient>
        <linearGradient x1="32.8972491%" y1="16.5873187%" x2="69.0887149%" y2="197.310338%" id="linearGradient-3">
            <stop stop-color="#D600A6" offset="0%"></stop>
            <stop stop-color="#00BEFF" offset="100%"></stop>
        </linearGradient>
        <linearGradient x1="-5.41012309%" y1="16.5873187%" x2="111.844322%" y2="197.310338%" id="linearGradient-4">
            <stop stop-color="#D600A6" offset="0%"></stop>
            <stop stop-color="#00BEFF" offset="100%"></stop>
        </linearGradient>
        <linearGradient x1="-5.42014795%" y1="16.5873187%" x2="111.855511%" y2="197.310338%" id="linearGradient-5">
            <stop stop-color="#D600A6" offset="0%"></stop>
            <stop stop-color="#00BEFF" offset="100%"></stop>
        </linearGradient>
        <linearGradient x1="-5.51843662%" y1="39.6714468%" x2="111.965213%" y2="95.5366829%" id="linearGradient-6">
            <stop stop-color="#D600A6" offset="0%"></stop>
            <stop stop-color="#00BEFF" offset="100%"></stop>
        </linearGradient>
        <linearGradient x1="-5.51843662%" y1="39.6688462%" x2="111.965213%" y2="95.548148%" id="linearGradient-7">
            <stop stop-color="#D600A6" offset="0%"></stop>
            <stop stop-color="#00BEFF" offset="100%"></stop>
        </linearGradient>
        <linearGradient x1="-5.4502332%" y1="16.5873187%" x2="111.88909%" y2="197.310338%" id="linearGradient-8">
            <stop stop-color="#D600A6" offset="0%"></stop>
            <stop stop-color="#00BEFF" offset="100%"></stop>
        </linearGradient>
        <linearGradient x1="-5.41413214%" y1="16.5873187%" x2="111.848797%" y2="197.310338%" id="linearGradient-9">
            <stop stop-color="#D600A6" offset="0%"></stop>
            <stop stop-color="#00BEFF" offset="100%"></stop>
        </linearGradient>
    </defs>
    <g id="Page-1" stroke="none" stroke-width="1" fill="none" fill-rule="evenodd">
        <g id="MetaClass---Landing-page" transform="translate(-1705.000000, -52.000000)" fill-rule="nonzero">
            <g id="theme" transform="translate(1587.333333, 33.333333)">
                <g id="sun-selected" transform="translate(117.737307, 19.248366)">
                    <path d="M12.1796334,6.08442739 C8.81540071,6.08442739 6.0784893,8.82455243 6.0784893,12.1920716 C6.0784893,15.5595908 8.81540071,18.2997158 12.1796334,18.2997158 C15.5433266,18.2997158 18.2807774,15.5601307 18.2807774,12.1920716 C18.2807774,8.8240125 15.5433266,6.08442739 12.1796334,6.08442739 Z" id="Path" fill="url(#linearGradient-1)"></path>
                    <g id="Group">
                        <path d="M12.1796334,4.28917306 C11.5221058,4.28917306 10.9891794,3.75572606 10.9891794,3.09809605 L10.9891794,1.19161694 C10.9891794,0.533447002 11.5221058,0 12.1796334,0 C12.837161,0 13.3700873,0.533447002 13.3700873,1.19161694 L13.3700873,3.09809605 C13.3700873,3.75572606 12.8366216,4.28917306 12.1796334,4.28917306 Z" id="Path" fill="url(#linearGradient-2)"></path>
                        <path d="M12.1796334,20.0933504 C11.5221058,20.0933504 10.9891794,20.6267974 10.9891794,21.2849673 L10.9891794,23.1909065 C10.9891794,23.8496164 11.5221058,24.3830634 12.1796334,24.3830634 C12.837161,24.3830634 13.3700873,23.8496164 13.3700873,23.1909065 L13.3700873,21.2849673 C13.3700873,20.6267974 12.8366216,20.0933504 12.1796334,20.0933504 Z" id="Path" fill="url(#linearGradient-3)"></path>
                        <path d="M17.761336,6.60383632 C17.2969133,6.13842001 17.2969133,5.38414322 17.761336,4.91872691 L19.1082158,3.5705314 C19.5726384,3.10565502 20.3267185,3.10565502 20.7916806,3.5705314 C21.2566427,4.03594771 21.2566427,4.79076442 20.7916806,5.25564081 L19.4448008,6.60383632 C18.9803782,7.06925263 18.2268375,7.06925263 17.761336,6.60383632 Z" id="Path" fill="url(#linearGradient-4)"></path>
                        <path d="M6.5973913,17.779767 C6.13242922,17.3138107 5.37888857,17.3138107 4.91392648,17.779767 L3.56704674,19.1274226 C3.10262405,19.5922989 3.10208465,20.3476556 3.56704674,20.812532 C4.03200883,21.2774084 4.78608888,21.2774084 5.25051157,20.812532 L6.5973913,19.4637965 C7.06235339,18.9989201 7.06235339,18.2441034 6.5973913,17.779767 Z" id="Path" fill="url(#linearGradient-5)"></path>
                        <path d="M20.0737403,12.1915317 C20.0737403,11.5333618 20.6066667,10.9999147 21.2641943,10.9999147 L23.1688127,10.9999147 C23.8263403,10.9999147 24.3592667,11.5333618 24.3592667,12.1915317 C24.3592667,12.8497016 23.8263403,13.3826087 23.1688127,13.3826087 L21.2641943,13.3826087 C20.6066667,13.3826087 20.0737403,12.8497016 20.0737403,12.1915317 Z" id="Path" fill="url(#linearGradient-6)"></path>
                        <path d="M4.28498704,12.1915317 C4.28498704,11.5333618 3.75206066,10.9999147 3.09453306,10.9999147 L1.19045398,10.9999147 C0.532926384,10.9999147 0,11.5333618 0,12.1915317 C0,12.8497016 0.532926384,13.3826087 1.19045398,13.3826087 L3.09507246,13.3826087 C3.75206066,13.3826087 4.28498704,12.8497016 4.28498704,12.1915317 Z" id="Path" fill="url(#linearGradient-7)"></path>
                        <path d="M17.761336,17.779767 C18.2262981,17.3148906 18.9803782,17.3148906 19.4448008,17.779767 L20.7916806,19.1279625 C21.2566427,19.5922989 21.2566427,20.3476556 20.7916806,20.812532 C20.3267185,21.2774084 19.5731778,21.2774084 19.1082158,20.812532 L17.761336,19.4643365 C17.2963739,18.9989201 17.2963739,18.2446434 17.761336,17.779767 Z" id="Path" fill="url(#linearGradient-8)"></path>
                        <path d="M6.5973913,6.60383632 C7.06235339,6.13842001 7.06235339,5.38414322 6.5973913,4.91872691 L5.25051157,3.57107133 C4.78554948,3.10565502 4.03200883,3.10565502 3.56704674,3.57107133 C3.10208465,4.03594771 3.10208465,4.79076442 3.56704674,5.25564081 L4.91392648,6.60383632 C5.37888857,7.06979255 6.13242922,7.06979255 6.5973913,6.60383632 Z" id="Path" fill="url(#linearGradient-9)"></path>
                    </g>
                </g>
            </g>
        </g>
    </g>
</svg>